<svg width="13" height="30" viewBox="0 0 13 30" fill="none" xmlns="http://www.w3.org/2000/svg">
<path d="M12.5682 12.4064C12.3626 12.2939 12.1381 12.2202 11.9059 12.1888C11.503 12.129 11.0921 12.154 10.6994 12.2621C10.4693 12.3214 10.2536 12.4264 10.0651 12.5709C10.1033 12.5113 10.142 12.4517 10.1784 12.3921C10.4025 11.818 10.7369 10.5704 10.4544 8.65925C10.3279 7.83875 10.2655 7.00963 10.2678 6.17944C10.2755 5.47691 10.2174 4.77521 10.0943 4.08351C9.92802 3.13272 9.86125 2.83943 9.80283 2.58072C9.74441 2.32201 9.69732 2.11277 9.57214 1.3724C9.56558 1.33246 9.55843 1.27226 9.54949 1.19357C9.50239 0.794771 9.41417 0.0514217 9.11194 0.00134846C9.0963 -0.000449485 9.0805 -0.000449485 9.06485 0.00134846C8.66963 0.0293656 8.40913 0.551558 8.2148 0.933069C8.1689 1.02427 8.12538 1.1119 8.08663 1.17688C7.67904 1.8939 7.21856 2.57954 6.70902 3.22809C6.41156 3.60675 6.15425 4.0153 5.94123 4.44714C5.85718 4.61286 5.7779 4.78513 5.70279 4.95145C5.59012 5.19526 5.47448 5.44741 5.34155 5.68347C5.1434 6.01381 4.91914 6.32777 4.67092 6.62234L4.59521 6.71832C4.34882 7.02641 4.123 7.3504 3.91922 7.68819C3.49658 8.55613 3.21343 9.29173 3.07692 9.87651C3.03681 10.1251 3.01687 10.3764 3.01731 10.6282V10.636C3.02268 10.6956 3.03102 10.7552 3.04116 10.8148C2.9954 10.7621 2.94664 10.7122 2.89511 10.6652C2.35324 10.168 1.82807 9.99812 1.48292 9.94268C1.38125 9.92457 1.27794 9.91737 1.17473 9.92122C1.16978 9.9215 1.16505 9.9234 1.16128 9.92664C1.15751 9.92987 1.15491 9.93425 1.15387 9.9391C1.15289 9.94387 1.15339 9.94883 1.15531 9.9533C1.15723 9.95778 1.16047 9.96156 1.1646 9.96414C1.16818 9.96414 1.51154 10.1722 1.45312 10.5501C1.41854 10.7719 1.1956 12.4106 1.99915 13.1325C1.93358 13.1976 1.86821 13.2632 1.80303 13.3292C1.45014 13.6868 1.21825 14.0129 1.07459 14.3467C0.942846 14.6514 0.873102 15.0955 1.01498 15.4019C1.019 15.4117 1.02542 15.4203 1.03365 15.4269C1.04188 15.4336 1.05165 15.4381 1.06207 15.44H1.07399C1.12764 15.4364 1.17866 15.4154 1.21944 15.3804C1.21289 15.4168 1.20752 15.4531 1.20335 15.4889C1.19917 15.5247 1.16579 15.8466 1.27071 15.9443C1.34343 16.0123 1.4245 16.0039 1.49902 15.9199C1.50975 16.3276 1.65997 16.7205 1.85668 17.065C1.72944 17.1319 1.61092 17.2142 1.50379 17.31C0.699634 18.017 0.262089 19.6348 0.467747 20.4599C0.551202 20.7961 0.854027 21.106 1.34224 21.354C1.52002 21.4488 1.70475 21.5299 1.89484 21.5966C1.87636 21.7123 1.85847 21.8273 1.84297 21.9412C1.48233 22.1141 0.391445 22.6601 0.47192 22.8705C0.508879 22.9665 1.10439 23.3832 1.91391 23.8005C1.92404 24.4049 1.99439 25.1256 2.22091 25.7199C2.18126 25.733 2.14762 25.7599 2.12613 25.7956C2.01823 25.978 2.21971 26.3745 2.24833 26.4281C2.25727 26.5181 2.36755 27.5905 2.37888 27.7127C2.33715 27.7515 2.10645 27.8886 2.00512 27.9512C1.93954 27.9905 1.90497 28.0108 1.89364 28.0191L1.85788 28.0448C1.66653 28.1801 1.46862 28.3202 1.32138 28.5079C1.18189 28.6868 1.06445 29.2328 1.05253 29.4486C1.05282 29.452 1.05282 29.4554 1.05253 29.4587C1.05193 29.4697 1.05193 29.4806 1.05253 29.4915C1.05221 29.4971 1.05221 29.5027 1.05253 29.5082C1.05283 29.5173 1.05485 29.5262 1.05849 29.5344C1.36907 30 2.34788 30 2.66799 30H2.67633C3.02566 30 3.42147 30 3.77616 29.9285C4.05037 29.8736 4.25782 29.6984 4.45811 29.5297C4.50282 29.4915 4.54812 29.4534 4.59402 29.4164C4.65661 29.3663 4.7198 29.3169 4.78835 29.265C4.88527 29.1623 4.97044 29.0491 5.0423 28.9276C5.04401 28.9242 5.04522 28.9206 5.04587 28.9169V28.9008L5.05422 28.8692C5.06256 28.828 5.06912 28.7827 5.07568 28.7351V28.7249C5.08224 28.6748 5.0882 28.623 5.09356 28.5711C5.09356 28.5711 5.09356 28.567 5.09356 28.5646C5.12277 28.2814 5.1341 27.9911 5.1341 27.9875L5.19371 26.2701C5.31293 26.0442 5.33737 25.8767 5.27359 25.7706C5.25582 25.7436 5.23268 25.7206 5.2056 25.7029C5.17852 25.6853 5.14809 25.6734 5.11622 25.6681C5.21398 25.3646 5.29028 24.8967 5.34691 24.4288C5.40652 24.8967 5.47984 25.3646 5.5776 25.6681C5.54573 25.6734 5.5153 25.6853 5.48822 25.7029C5.46114 25.7206 5.438 25.7436 5.42023 25.7706C5.35645 25.8767 5.38327 26.0442 5.50071 26.2701L5.56032 27.9875C5.56032 27.9911 5.57164 28.2814 5.60085 28.5646C5.60085 28.5646 5.60085 28.5646 5.60085 28.5693C5.60622 28.6236 5.61277 28.6772 5.61993 28.7291V28.7339C5.62648 28.7816 5.63364 28.8275 5.64139 28.8692C5.64139 28.8775 5.64139 28.8865 5.64556 28.8948V28.9109C5.64616 28.9147 5.64758 28.9184 5.64973 28.9216C5.72231 29.0447 5.80871 29.1591 5.90725 29.2626C5.97163 29.3109 6.03482 29.3604 6.09801 29.4104C6.14391 29.4474 6.18862 29.4856 6.23392 29.5237C6.43422 29.6924 6.64106 29.8677 6.91528 29.9225C7.26996 29.9934 7.66578 29.994 8.0151 29.994H8.02344C8.34534 29.994 9.32475 29.994 9.63294 29.5285C9.63658 29.5202 9.63861 29.5113 9.6389 29.5022C9.6389 29.4975 9.6389 29.4915 9.6389 29.4862C9.6389 29.4808 9.6389 29.4647 9.6389 29.4522C9.6392 29.4492 9.6392 29.4462 9.6389 29.4432C9.62758 29.2274 9.51014 28.6784 9.37065 28.502C9.22162 28.3142 9.02431 28.1741 8.83415 28.0388L8.79779 28.0132C8.78706 28.0054 8.75189 27.9846 8.68632 27.9452C8.58498 27.8856 8.35488 27.7473 8.31256 27.7068C8.32507 27.5875 8.43178 26.5145 8.4437 26.4221C8.47172 26.3685 8.6732 25.9721 8.56292 25.7897C8.54143 25.7539 8.50779 25.727 8.46814 25.714V25.7098C8.67857 25.1566 8.75368 24.4925 8.77097 23.9155C9.60552 23.5358 10.2291 23.1453 10.2732 23.0309C10.3328 22.8801 9.78614 22.557 9.34025 22.3221L9.32237 22.1874C9.29793 22.0026 9.27229 21.8112 9.2407 21.6038C9.44131 21.5389 9.63629 21.4578 9.8237 21.3612C10.3006 21.1108 10.5986 20.8008 10.6809 20.467C10.8824 19.6402 10.4538 18.023 9.66752 17.3172C9.64963 17.3011 9.63115 17.2868 9.61327 17.2719C9.72474 17.1848 9.76885 17.028 9.80343 16.8993C9.80999 16.8731 9.81714 16.848 9.82429 16.8242C9.83562 16.7854 9.84516 16.7449 9.8535 16.705C9.85894 16.7252 9.86551 16.7451 9.87318 16.7646C9.87717 16.7752 9.88392 16.7845 9.89272 16.7916C9.90152 16.7987 9.91206 16.8034 9.92325 16.8051H9.94232C10.1432 16.8194 10.2255 16.5637 10.2803 16.395C10.2905 16.3628 10.3 16.3354 10.3089 16.3103C10.4639 15.902 10.5009 15.44 10.418 14.9393C10.4127 14.9101 10.4055 14.8797 10.4001 14.8516C11.4135 14.547 11.9631 13.0365 12.0317 12.8374C12.1557 12.4761 12.5557 12.4541 12.5598 12.4541C12.5647 12.4538 12.5694 12.452 12.5731 12.4489C12.5769 12.4458 12.5796 12.4415 12.5807 12.4368C12.582 12.434 12.5826 12.431 12.5827 12.4279C12.5827 12.4248 12.5822 12.4218 12.581 12.4189C12.5798 12.4161 12.5781 12.4135 12.5759 12.4113C12.5737 12.4092 12.5711 12.4075 12.5682 12.4064Z" fill="white"/>
</svg>
