<svg width="13" height="31" viewBox="0 0 13 31" fill="none" xmlns="http://www.w3.org/2000/svg">
<path d="M12.5682 12.9064C12.3626 12.7939 12.1382 12.7202 11.9059 12.6888C11.503 12.629 11.0921 12.654 10.6994 12.7621C10.4694 12.8214 10.2537 12.9264 10.0652 13.0709C10.1033 13.0113 10.1421 12.9517 10.1784 12.8921C10.4026 12.318 10.737 11.0704 10.4544 9.15925C10.3279 8.33875 10.2655 7.50963 10.2678 6.67944C10.2755 5.97691 10.2175 5.27521 10.0944 4.58351C9.92805 3.63272 9.86128 3.33943 9.80286 3.08072C9.74444 2.82201 9.69735 2.61277 9.57217 1.8724C9.56561 1.83246 9.55846 1.77226 9.54952 1.69357C9.50242 1.29477 9.4142 0.551422 9.11197 0.501348C9.09633 0.499551 9.08053 0.499551 9.06488 0.501348C8.66966 0.529366 8.40916 1.05156 8.21483 1.43307C8.16893 1.52427 8.12541 1.6119 8.08666 1.67688C7.67907 2.3939 7.21859 3.07954 6.70905 3.72809C6.41159 4.10675 6.15428 4.5153 5.94126 4.94714C5.85721 5.11286 5.77793 5.28513 5.70282 5.45145C5.59015 5.69526 5.47451 5.94741 5.34158 6.18347C5.14343 6.51381 4.91917 6.82777 4.67095 7.12234L4.59524 7.21832C4.34885 7.52641 4.12303 7.8504 3.91926 8.18819C3.49661 9.05613 3.21346 9.79173 3.07695 10.3765C3.03684 10.6251 3.0169 10.8764 3.01734 11.1282V11.136C3.02271 11.1956 3.03105 11.2552 3.04119 11.3148C2.99543 11.2621 2.94667 11.2122 2.89514 11.1652C2.35327 10.668 1.8281 10.4981 1.48295 10.4427C1.38128 10.4246 1.27797 10.4174 1.17477 10.4212C1.16981 10.4215 1.16508 10.4234 1.16131 10.4266C1.15754 10.4299 1.15494 10.4342 1.1539 10.4391C1.15292 10.4439 1.15342 10.4488 1.15534 10.4533C1.15726 10.4578 1.1605 10.4616 1.16463 10.4641C1.16821 10.4641 1.51157 10.6722 1.45315 11.0501C1.41857 11.2719 1.19563 12.9106 1.99918 13.6325C1.93361 13.6976 1.86824 13.7632 1.80306 13.8292C1.45017 14.1868 1.21828 14.5129 1.07462 14.8467C0.942877 15.1514 0.873132 15.5955 1.01501 15.9019C1.01903 15.9117 1.02545 15.9203 1.03368 15.9269C1.04191 15.9336 1.05168 15.9381 1.0621 15.94H1.07402C1.12767 15.9364 1.17869 15.9154 1.21947 15.8804C1.21292 15.9168 1.20755 15.9531 1.20338 15.9889C1.1992 16.0247 1.16582 16.3466 1.27074 16.4443C1.34346 16.5123 1.42453 16.5039 1.49905 16.4199C1.50978 16.8276 1.66 17.2205 1.85671 17.565C1.72947 17.6319 1.61095 17.7142 1.50382 17.81C0.699665 18.517 0.26212 20.1348 0.467778 20.9599C0.551233 21.2961 0.854058 21.606 1.34227 21.854C1.52005 21.9488 1.70478 22.0299 1.89487 22.0966C1.87639 22.2123 1.8585 22.3273 1.843 22.4412C1.48236 22.6141 0.391476 23.1601 0.471951 23.3705C0.50891 23.4665 1.10442 23.8832 1.91394 24.3005C1.92408 24.9049 1.99442 25.6256 2.22094 26.2199C2.18129 26.233 2.14765 26.2599 2.12616 26.2956C2.01826 26.478 2.21975 26.8745 2.24836 26.9281C2.2573 27.0181 2.36758 28.0905 2.37891 28.2127C2.33718 28.2515 2.10649 28.3886 2.00515 28.4512C1.93957 28.4905 1.905 28.5108 1.89367 28.5191L1.85791 28.5448C1.66656 28.6801 1.46865 28.8202 1.32141 29.0079C1.18192 29.1868 1.06448 29.7328 1.05256 29.9486C1.05285 29.952 1.05285 29.9554 1.05256 29.9587C1.05196 29.9697 1.05196 29.9806 1.05256 29.9915C1.05224 29.9971 1.05224 30.0027 1.05256 30.0082C1.05286 30.0173 1.05488 30.0262 1.05852 30.0344C1.3691 30.5 2.34791 30.5 2.66802 30.5H2.67637C3.02569 30.5 3.4215 30.5 3.77619 30.4285C4.0504 30.3736 4.25785 30.1984 4.45814 30.0297C4.50285 29.9915 4.54815 29.9534 4.59405 29.9164C4.65664 29.8663 4.71983 29.8169 4.78838 29.765C4.8853 29.6623 4.97047 29.5491 5.04233 29.4276C5.04405 29.4242 5.04525 29.4206 5.0459 29.4169V29.4008L5.05425 29.3692C5.0626 29.328 5.06915 29.2827 5.07571 29.2351V29.2249C5.08227 29.1748 5.08823 29.123 5.09359 29.0711C5.09359 29.0711 5.09359 29.067 5.09359 29.0646C5.1228 28.7814 5.13413 28.4911 5.13413 28.4875L5.19374 26.7701C5.31296 26.5442 5.3374 26.3767 5.27362 26.2706C5.25585 26.2436 5.23271 26.2206 5.20563 26.2029C5.17855 26.1853 5.14812 26.1734 5.11625 26.1681C5.21401 25.8646 5.29031 25.3967 5.34694 24.9288C5.40655 25.3967 5.47987 25.8646 5.57763 26.1681C5.54576 26.1734 5.51533 26.1853 5.48825 26.2029C5.46117 26.2206 5.43803 26.2436 5.42026 26.2706C5.35648 26.3767 5.3833 26.5442 5.50074 26.7701L5.56035 28.4875C5.56035 28.4911 5.57167 28.7814 5.60088 29.0646C5.60088 29.0646 5.60088 29.0646 5.60088 29.0693C5.60625 29.1236 5.6128 29.1772 5.61996 29.2291V29.2339C5.62651 29.2816 5.63367 29.3275 5.64142 29.3692C5.64142 29.3775 5.64142 29.3865 5.64559 29.3948V29.4109C5.64619 29.4147 5.64761 29.4184 5.64976 29.4216C5.72235 29.5447 5.80875 29.6591 5.90728 29.7626C5.97166 29.8109 6.03485 29.8604 6.09804 29.9104C6.14394 29.9474 6.18865 29.9856 6.23395 30.0237C6.43425 30.1924 6.6411 30.3677 6.91531 30.4225C7.26999 30.4934 7.66581 30.494 8.01513 30.494H8.02347C8.34537 30.494 9.32478 30.494 9.63297 30.0285C9.63661 30.0202 9.63864 30.0113 9.63893 30.0022C9.63893 29.9975 9.63893 29.9915 9.63893 29.9862C9.63893 29.9808 9.63893 29.9647 9.63893 29.9522C9.63923 29.9492 9.63923 29.9462 9.63893 29.9432C9.62761 29.7274 9.51017 29.1784 9.37068 29.002C9.22165 28.8142 9.02434 28.6741 8.83418 28.5388L8.79782 28.5132C8.78709 28.5054 8.75192 28.4846 8.68635 28.4452C8.58501 28.3856 8.35491 28.2473 8.31259 28.2068C8.32511 28.0875 8.43181 27.0145 8.44373 26.9221C8.47175 26.8685 8.67323 26.4721 8.56295 26.2897C8.54146 26.2539 8.50782 26.227 8.46817 26.214V26.2098C8.6786 25.6566 8.75371 24.9925 8.771 24.4155C9.60555 24.0358 10.2291 23.6453 10.2732 23.5309C10.3328 23.3801 9.78617 23.057 9.34028 22.8221L9.3224 22.6874C9.29796 22.5026 9.27232 22.3112 9.24073 22.1038C9.44134 22.0389 9.63632 21.9578 9.82373 21.8612C10.3006 21.6108 10.5987 21.3008 10.6809 20.967C10.8824 20.1402 10.4538 18.523 9.66755 17.8172C9.64966 17.8011 9.63118 17.7868 9.6133 17.7719C9.72477 17.6848 9.76888 17.528 9.80346 17.3993C9.81002 17.3731 9.81717 17.348 9.82432 17.3242C9.83565 17.2854 9.84519 17.2449 9.85353 17.205C9.85897 17.2252 9.86554 17.2451 9.87321 17.2646C9.8772 17.2752 9.88395 17.2845 9.89275 17.2916C9.90155 17.2987 9.91209 17.3034 9.92328 17.3051H9.94235C10.1432 17.3194 10.2255 17.0637 10.2803 16.895C10.2905 16.8628 10.3 16.8354 10.309 16.8103C10.464 16.402 10.5009 15.94 10.418 15.4393C10.4127 15.4101 10.4055 15.3797 10.4002 15.3516C11.4136 15.047 11.9632 13.5365 12.0317 13.3374C12.1557 12.9761 12.5557 12.9541 12.5599 12.9541C12.5647 12.9538 12.5694 12.952 12.5732 12.9489C12.5769 12.9458 12.5796 12.9415 12.5807 12.9368C12.582 12.934 12.5827 12.931 12.5827 12.9279C12.5828 12.9248 12.5822 12.9218 12.581 12.9189C12.5798 12.9161 12.5781 12.9135 12.5759 12.9113C12.5737 12.9092 12.5711 12.9075 12.5682 12.9064Z" fill="#577F41"/>
</svg>
